<svg clip-rule="evenodd" fill-rule="evenodd" stroke-miterlimit="10" viewBox="0 0 1250 1667" xmlns="http://www.w3.org/2000/svg"><g fill-rule="nonzero"><g fill="#fff"><path d="m0 47.173-40.852 23.586-40.852-23.586v-47.172l40.852-23.587 40.852 23.587z" transform="matrix(3.97196 0 0 3.97196 785.973 1363.83)"/><path d="m0 47.173-40.852 23.586-40.852-23.586v-47.172l40.852-23.587 40.852 23.587z" transform="matrix(4.06472 0 0 4.16662 371.548 1360.06)"/><path d="m0 47.173-40.852 23.586-40.852-23.586v-47.172l40.852-23.587 40.852 23.587z" transform="matrix(4.06472 0 0 4.16662 378.548 943.389)"/><path d="m0 47.173-40.852 23.586-40.852-23.586v-47.172l40.852-23.587 40.852 23.587z" transform="matrix(4.06472 0 0 4.16662 786.878 943.393)"/><path d="m0 47.173-40.852 23.586-40.852-23.586v-47.172l40.852-23.587 40.852 23.587z" transform="matrix(4.06472 0 0 4.16662 1203.55 943.389)"/><path d="m0 47.173-40.852 23.586-40.852-23.586v-47.172l40.852-23.587 40.852 23.587z" transform="matrix(4.06472 0 0 4.16662 1207.72 526.726)"/><path d="m0 47.173-40.852 23.586-40.852-23.586v-47.172l40.852-23.587 40.852 23.587z" transform="matrix(4.06472 0 0 4.16662 789.717 526.726)"/><path d="m0 47.173-40.852 23.586-40.852-23.586v-47.172l40.852-23.587 40.852 23.587z" transform="matrix(4.06472 0 0 4.16662 374.384 526.73)"/><path d="m0 47.173-40.852 23.586-40.852-23.586v-47.172l40.852-23.587 40.852 23.587z" transform="matrix(4.06472 0 0 4.16662 374.384 115.14)"/><path d="m0 47.173-40.852 23.586-40.852-23.586v-47.172l40.852-23.587 40.852 23.587z" transform="matrix(4.06472 0 0 4.16662 795.506 115.14)"/><path d="m0 47.173-40.852 23.586-40.852-23.586v-47.172l40.852-23.587 40.852 23.587z" transform="matrix(4.06472 0 0 4.16662 1211.88 115.14)"/></g><path d="m0 47.173-40.852 23.586-40.852-23.586v-47.172l40.852-23.587 40.852 23.587z" fill="#337BB8" stroke="#337BB8" stroke-width="4" transform="matrix(4.16667 0 0 4.16667 1211.88 1360.05)"/><path d="m0-33.878v33.877l29.339 16.939 29.338-16.939v-33.877l-29.338-16.938z" fill="#337BB8" transform="matrix(4.16667 0 0 4.16667 502.750402 1528.913723)"/></g><path d="m0 47.173-40.852 23.586-40.853-23.586v-47.172l40.853-23.587 40.852 23.587z" fill="none" stroke="#337BB8" stroke-width="4" transform="matrix(4.16667 0 0 4.16667 795.217303 1360.055255)"/><path d="m0 47.173-40.852 23.586-40.853-23.586v-47.172l40.853-23.587 40.852 23.587z" fill="none" stroke="#337BB8" stroke-width="4" transform="matrix(4.16667 0 0 4.16667 378.55072 1360.055255)"/><path d="m0 44.864-38.852 22.431-38.852-22.431v-44.863l15.89-9.174 5.623 7.739-11.999 6.928v33.877l29.338 16.939 29.339-16.939v-33.877l-29.338-16.939v-10.986l38.851 22.432zm-38.851-69.604-40.853 23.586v47.172l40.853 23.586 40.852-23.586v-47.172z" fill="#337BB8" fill-rule="nonzero" transform="matrix(4.16667 0 0 4.16667 370.21113 1364.867759)"/><path d="m0 47.173-40.852 23.586-40.852-23.586v-47.172l40.852-23.587 40.852 23.587z" fill="none" stroke="#337BB8" stroke-width="4" transform="matrix(4.16667 0 0 4.16667 1211.884303 943.392421)"/><path d="m0 44.863-38.852 22.432-38.852-22.432v-35.056l3.138 1.02 6.376 2.071v26.473l29.338 16.938 29.338-16.938v-33.877l-29.337-16.94v-10.985l38.851 22.431zm-38.851-69.604-40.852 23.587v47.172l40.852 23.586 40.852-23.586v-47.172z" fill="#337BB8" fill-rule="nonzero" transform="matrix(4.16667 0 0 4.16667 1203.546796 948.204925)"/><path d="m0 47.173-40.852 23.586-40.853-23.586v-47.172l40.853-23.587 40.852 23.587z" fill="none" stroke="#337BB8" stroke-width="4" transform="matrix(4.16667 0 0 4.16667 795.217303 943.392421)"/><path d="m0 44.863-38.852 22.432-38.852-22.432v-9.807l.069-.023 9.445-3.068v7.406l29.338 16.938 29.338-16.938v-33.877l-29.337-16.94v-10.985l38.851 22.431zm-38.851-69.604-40.853 23.587v47.172l40.853 23.586 40.852-23.586v-47.172z" fill="#337BB8" fill-rule="nonzero" transform="matrix(4.16667 0 0 4.16667 786.879796 948.204925)"/><path d="m0 47.173-40.852 23.586-40.853-23.586v-47.172l40.853-23.587 40.852 23.587z" fill="none" stroke="#337BB8" stroke-width="4" transform="matrix(4.16667 0 0 4.16667 378.55072 943.392421)"/><path d="m0 44.863-38.852 22.432-24.025-13.871 5.781-7.648 18.244 10.533 29.339-16.938v-33.877l-29.338-16.94v-10.985l38.851 22.431zm-38.851-69.604-40.853 23.587v47.172l40.853 23.586 40.852-23.586v-47.172z" fill="#337BB8" fill-rule="nonzero" transform="matrix(4.16667 0 0 4.16667 370.21113 948.204925)"/><path d="m0 47.173-40.852 23.586-40.852-23.586v-47.172l40.852-23.587 40.852 23.587z" fill="none" stroke="#337BB8" stroke-width="4" transform="matrix(4.16667 0 0 4.16667 1211.884303 526.725421)"/><path d="m0 44.863-38.851 22.43v-10.985l29.337-16.938v-33.877l-29.337-16.939v-10.985l38.851 22.431zm-38.851-69.604-40.852 23.586v47.173l40.852 23.586 40.852-23.586v-47.173z" fill="#337BB8" fill-rule="nonzero" transform="matrix(4.16667 0 0 4.16667 1203.546796 531.542092)"/><path d="m0 47.173-40.852 23.586-40.853-23.586v-47.172l40.853-23.587 40.852 23.587z" fill="none" stroke="#337BB8" stroke-width="4" transform="matrix(4.16667 0 0 4.16667 795.217303 526.725421)"/><path d="m0 44.863-15.473 8.933-5.623-7.739 11.582-6.687v-33.877l-29.337-16.939v-10.985l38.851 22.431zm-38.851-69.604-40.853 23.586v47.173l40.853 23.586 40.852-23.586v-47.173z" fill="#337BB8" fill-rule="nonzero" transform="matrix(4.16667 0 0 4.16667 786.879796 531.542092)"/><path d="m0 47.173-40.852 23.586-40.853-23.586v-47.172l40.853-23.587 40.852 23.587z" fill="none" stroke="#337BB8" stroke-width="4" transform="matrix(4.16667 0 0 4.16667 378.55072 526.725421)"/><path d="m0 23.371-5.844-1.899-3.669-1.192v-25.533l-29.338-16.939v-10.985l38.851 22.431zm-38.851-58.858-40.853 23.587v47.172l40.853 23.586 40.852-23.586v-47.172z" fill="#337BB8" fill-rule="nonzero" transform="matrix(4.16667 0 0 4.16667 370.21113 576.312961)"/><path d="m0 47.173-40.852 23.586-40.852-23.586v-47.172l40.852-23.587 40.852 23.587z" fill="none" stroke="#337BB8" stroke-width="4" transform="matrix(4.16667 0 0 4.16667 1211.884303 110.061755)"/><path d="m0-27.679-9.514 3.091v-6.19l-29.337-16.938v-10.986l38.851 22.431zm-38.851-33.333-40.852 23.587v47.172l40.852 23.586 40.852-23.586v-47.172z" fill="#337BB8" fill-rule="nonzero" transform="matrix(4.16667 0 0 4.16667 1203.546796 266.002296)"/><path d="m0 47.173-40.852 23.586-40.853-23.586v-47.172l40.853-23.587 40.852 23.587z" fill="none" stroke="#337BB8" stroke-width="4" transform="matrix(4.16667 0 0 4.16667 795.217303 110.061755)"/><path d="m0-48.129-16.995-9.813v-10.985l22.608 13.053zm-16.995-23.108-40.853 23.587v47.172l40.853 23.586 40.851-23.586v-47.172z" fill="#337BB8" fill-rule="nonzero" transform="matrix(4.16667 0 0 4.16667 695.813057 308.608164)"/><path d="m0 47.173-40.852 23.586-40.853-23.586v-47.172l40.853-23.587 40.852 23.587z" fill="none" stroke="#337BB8" stroke-width="4" transform="matrix(4.16667 0 0 4.16667 378.55 110.062)"/></svg>